<svg width="24" height="24" viewBox="0 0 24 24" fill="none" xmlns="http://www.w3.org/2000/svg">
<path d="M18.0492 3.6969C18.814 5.44119 20.2075 6.83398 21.9515 7.59924C20.2077 8.36426 18.8142 9.75772 18.0492 11.5016C17.2839 9.75756 15.8911 8.36405 14.1469 7.59924C15.8913 6.83418 17.2841 5.44135 18.0492 3.6969Z" stroke="black" stroke-opacity="0.9" stroke-width="1.5" stroke-linejoin="round"/>
<path d="M3.2 9.25003C3.13449 9.25003 3.06898 9.28295 3.03622 9.35976L2.9598 9.56824C2.67593 10.3253 2.08635 10.9288 1.32208 11.2141L1.11464 11.2909C0.961787 11.3458 0.961787 11.5543 1.11464 11.6091L1.32208 11.6859C2.07543 11.9712 2.67593 12.5637 2.9598 13.3318L3.03622 13.5403C3.06898 13.6171 3.13449 13.65 3.2 13.65C3.2655 13.65 3.33101 13.6171 3.36377 13.5403L3.44019 13.3318C3.72406 12.5747 4.31364 11.9712 5.07791 11.6859L5.28535 11.6091C5.4382 11.5543 5.4382 11.3458 5.28535 11.2909L5.07791 11.2141C4.32456 10.9288 3.72406 10.3363 3.44019 9.56824L3.36377 9.35976C3.33101 9.28295 3.2655 9.25003 3.2 9.25003Z" fill="black" fill-opacity="0.9"/>
<path d="M12 14.75C8.44345 14.75 5.32495 16.6254 3.57944 19.4413C3.03402 20.3211 3.74922 21.35 4.78444 21.35H19.2155C20.2507 21.35 20.9659 20.3211 20.4205 19.4413C18.675 16.6254 15.5565 14.75 12 14.75Z" stroke="black" stroke-opacity="0.9" stroke-width="1.5" stroke-linecap="round"/>
<path d="M14.2 3.23867C13.5528 2.86429 12.8014 2.65002 12 2.65002C9.56992 2.65002 7.59998 4.61997 7.59998 7.05003C7.59998 9.48008 9.56992 11.45 12 11.45C12.3798 11.45 12.7484 11.4019 13.1 11.3114" stroke="black" stroke-opacity="0.9" stroke-width="1.5" stroke-linecap="round"/>
</svg>
