<svg width="24" height="24" viewBox="0 0 24 24" fill="none" xmlns="http://www.w3.org/2000/svg">
<path d="M20.25 10.9688V17.1563C20.25 18.8649 18.8649 20.25 17.1562 20.25H6.84375C5.13512 20.25 3.75 18.8649 3.75 17.1562V6.84375C3.75 5.13512 5.13512 3.75 6.84375 3.75H13.0312" stroke="black" stroke-opacity="0.9" stroke-width="1.5" stroke-linecap="round" stroke-linejoin="round"/>
<path d="M18.3369 8.68764L17.6721 10.7136C17.5383 11.1213 16.9617 11.1213 16.8279 10.7136L16.1631 8.68764C16.031 8.28489 15.7151 7.96902 15.3124 7.83687L13.2864 7.17209C12.8787 7.03833 12.8787 6.46167 13.2864 6.32791L15.3124 5.66313C15.7151 5.53098 16.031 5.21511 16.1631 4.81236L16.8279 2.78637C16.9617 2.37872 17.5383 2.37872 17.6721 2.78637L18.3369 4.81236C18.469 5.21511 18.7849 5.53098 19.1876 5.66313L21.2136 6.32791C21.6213 6.46167 21.6213 7.03833 21.2136 7.17209L19.1876 7.83687C18.7849 7.96902 18.469 8.28489 18.3369 8.68764Z" fill="black" fill-opacity="0.9"/>
<path d="M13 16L15 16" stroke="black" stroke-opacity="0.9" stroke-width="1.5" stroke-linecap="round" stroke-linejoin="round"/>
<path d="M8 12L10 14L8 16" stroke="black" stroke-opacity="0.9" stroke-width="1.5" stroke-linecap="round" stroke-linejoin="round"/>
</svg>
